<svg xmlns="http://www.w3.org/2000/svg" version="1.0" viewBox="0 0 2000 2000">
  <path d="M1097.6 217.1c-40.9 4.7-80.1 25-114.5 59.1-55.7 55.2-88.2 124.4-102.5 217.8-5.1 33.5-7.6 69.5-7.6 109.5.1 119.4 19.6 219.9 57.4 296 4.6 9.3 9.8 19.4 11.5 22.2l3.1 5.3-10.7 8.6c-21 16.7-42.6 30.3-66.4 41.8-31.8 15.5-62.2 24.3-95.2 27.6-17.5 1.8-52 .8-67.2-1.9-12.1-2.2-29.1-6.6-37.6-9.9l-4.7-1.7 5.5-7.5c65.9-90.7 108-201.4 117.3-308.5 1.3-15.3 1.3-62.1 0-79-8.6-108.9-46.7-167-118-180.2-13.5-2.5-42.3-2.4-54 .1-38.6 8.3-76.6 33.1-105.2 68.5-28.5 35.3-49.3 88.2-57.4 146.1-2.2 15.6-3 71.5-1.5 93.3 6.9 93.3 32.7 166 79.4 223.7 6.8 8.3 31.5 33.4 39.1 39.8l5 4.1-20.5 20.3c-21.7 21.8-39.5 36.7-59.9 50.3-13.9 9.2-35.8 22-36.6 21.3-.2-.3-2-7.9-3.8-16.9-25.1-121.4-70.7-216.7-128.2-268.1-39.7-35.4-79.3-57.8-116.1-65.8-34.8-7.5-72.7-4-104.5 9.6-29.3 12.5-57.4 36.1-74 62-16.5 25.8-24.9 61.7-23.5 100.9 1.4 36.7 8.2 64.4 23.7 96 13.4 27.4 28.8 48.3 53.1 72 17.4 16.9 29.5 26.8 49.4 40 55.9 37.3 125.6 57.9 204 60.4 24.3.7 46.8-.1 61-2.3 5.5-.8 10.1-1.3 10.2-1.2.8.8 2.4 33.3 2.9 61.1.8 38-1.1 74.2-5.1 99.6l-.6 3.5-17.7 1.8c-74.8 7.3-135.4 34.1-182.2 80.7-38.1 38-59.7 80-66.5 129.4-1.3 9.1-1.6 16.8-1.2 32 .4 17.4.8 21.3 3 29.8 5.3 19.8 15.6 37.6 30.7 52.7 23.3 23.4 53.2 35.9 90.5 37.8 31.8 1.7 53.4-3.9 76.7-19.6 37.4-25.3 73-81.3 100-157.7 10-28.4 21.7-73.4 26.4-102.3 1.4-8.2 2-10.2 3.4-10.2 6.4 0 57.1 11.5 75.5 17.2 11.8 3.6 65 22.9 78 28.3 22 9.1 118.8 55.5 152.5 73.1 9.1 4.7 31.2 16 49.3 25.1 18 9.1 32.7 16.6 32.7 16.8 0 .1-2.3 4-5.1 8.6-6.3 10.4-16.5 31.3-21.3 43.7-14.3 36.6-18.6 77.4-12.1 114.8 1.5 8.6 4 19.3 4.7 19.9 1 .8 78.1 26.5 78.5 26.1.2-.2-.5-4.6-1.6-9.8-4.9-22.6-6.4-50.7-4-72.6 3.1-28.4 14.4-63.8 28.4-88.7l3.6-6.5 11.7 5.9c74.8 37.5 159.6 72 227.8 92.6 72.8 22 134.4 31.7 193.4 30.2 100.4-2.6 173.7-29.4 231.2-84.5 40.8-39.1 61.8-84.8 61.8-134 0-27.6-5.5-51.3-17.6-75.7-13.7-27.9-35.6-52-63.7-70.3-15.9-10.4-42.3-22.4-62.9-28.7l-8.7-2.6 3-8.2c15.1-40.9 44.4-112 63.3-153.2 5.2-11.4 5.6-12 8.3-11.8 1.5.2 8.7.9 15.8 1.8 104 11.9 185.8-6.2 262.5-58.3 35.4-24 70.3-56.7 93.9-88 24.2-32 39.2-66 45.8-103.7 2.4-14.1 2.4-52.4 0-68.5-5.7-37.2-18-65.1-37.8-86.4-16-17.2-34.5-27.3-60.2-32.8-15.1-3.2-44.4-3.2-60.7 0-57.9 11.6-115.6 52.3-172.5 121.7-48.3 58.9-90.9 126.4-137.7 218.2l-14.9 29.2-7.2-2.6c-11.3-4-26.8-10.8-44.3-19.4l-16.1-7.8-7.5-11.3c-11.2-16.8-27.8-46.5-29-51.9-.2-1 3.6-4.7 10-9.8 69-55 129-130 175.8-219.6 29.2-56.2 47.2-110.2 52.9-158.8 2-17.6 2-51.8 0-68.8-2.8-23.9-10.1-52.1-18-69.4-9.2-20.2-25.7-39.6-44.5-52.2-11.7-7.8-34-16.5-50-19.4-12.1-2.2-41.2-1.7-53.7.9-47.2 10.1-88.1 38.7-127.5 89.4-40 51.3-63.5 112.4-73 189.9-2 16.6-2.2 22.8-2.2 63.4-.1 46.2.5 55.6 5 86.5 6.8 46.4 21.9 98 39.3 133.9 3.8 7.8 3.9 8.5 2.3 9.6-6.1 4.2-23.4 13.7-35.5 19.5-43.8 21-86.4 30.2-132.7 28.7-40-1.4-66.5-7.9-86.6-21.3-11.9-7.8-17.6-14.8-32.4-39.5l-8-13.3 13.3-13.6c24.2-24.6 38.8-41.4 59-68.2 77.1-102 136.5-244 154.1-367.8 6.9-48.7 7.7-105.1 2-145-4.9-33.9-15.8-65.9-29.9-87.7-10.6-16.2-30.1-32.6-52.2-43.7-21-10.5-47.9-14.7-74.7-11.5zm82.4 55.6 6.5 1.8 1.7 8.5c15.4 75.8 8.1 168.7-21.6 273.4-30.2 106.3-74.5 198.6-132.6 276.1-14.5 19.3-36 45-37.5 44.8-2.3-.4-13.1-48.3-17.9-80.3-3.4-22.3-6.2-47.8-8.3-75.5-2.6-33.8-2.6-125.7 0-150.5 7.3-71 23.3-130.4 49.7-184.5 32.4-66.3 77.3-108.3 123.5-115.5 8.8-1.3 28.8-.4 36.5 1.7zM698 465.5c3.9.8 8 1.9 9 2.5 3.5 1.9 10.9 28.9 13.9 51 3.2 22.7 4.2 69.6 2.1 93-3.7 39.7-14.7 94.5-29.5 146.5-13.1 45.8-32 92.8-52.9 131.6-15.3 28.2-35.2 59.7-36.7 58.2-2.5-2.5-18.1-29.8-24.4-42.8-24.2-49.6-37.7-100.4-43.7-164.5-1.9-20.8-1.6-72.5.5-88.5 13.2-99.1 62.1-173.3 123.2-187 8.3-1.9 29.7-1.9 38.5 0zm870.4 2.1c7.7 1.7 7.9 1.9 9.7 5.8 5 11.6 7.3 34.7 6.6 68.4-.5 25.9-1.4 34.8-5.9 56.7-8.5 41.8-26.9 91.8-52.8 143.6-26.6 53-57.3 99.3-94.3 141.9-10.3 11.9-51.2 53-52.7 53-1 0-6.7-23.5-10.4-42.5-4.9-25.2-7.8-47.8-9.7-74.9-1.5-22.4-.7-80.4 1.5-98.6 6.7-56.5 20.2-102.7 43-146.5 33.1-63.9 74.2-100.1 122.3-108 11.3-1.8 32-1.3 42.7 1.1zM236.2 804c25.6 5.4 49.6 17.4 73.6 36.8 8.6 6.9 9.8 8.4 16.8 20.1 30.6 51.3 54.5 120 67.8 195.1 3.5 19.8 7.9 49.1 7.4 49.5-.7.6-23.1 6.6-31.3 8.4-44.6 9.7-96.5 10.5-137.5 2.1-31.1-6.5-62.8-19.2-91-36.5-11.8-7.2-15.8-11.3-25.3-25.6-17.8-27-28.1-52.8-33.3-83.4-2.5-14.6-2.5-46.6 0-60 5.4-29.5 17.7-53.5 37.6-73.6 18.5-18.7 40.8-30.2 66.5-34.4 12.2-2 35.7-1.3 48.7 1.5zm1691.1-1.1c2.1.5 4.1 1.2 4.4 1.5 3.2 3.2 5.4 42.4 3.3 59.3-4.6 37.1-21.6 74.5-50 110.3-10.6 13.4-35.3 38-49.5 49.4-43.8 34.9-97.6 61.9-151 75.6-25.9 6.6-61.8 12-80.1 12h-6.6l8.2-15.8c20.5-39.2 44-79.2 66.5-113.2 73.4-110.7 145-170.1 217-179.9 8-1.1 32.2-.6 37.8.8zM1000 996.6c57.3 52.6 127.6 78.4 213.8 78.4 46.4.1 81.4-8.6 127.2-31.4l16.6-8.3 7.9 9.9c27.2 34.3 63.5 63.7 103.3 83.6 9.8 4.9 18.5 9.1 19.2 9.4 1 .3-1 5.7-7.7 20.9-21.4 48-53.6 128.8-63.7 159.6l-1.7 5.2-25.7-.6c-67.1-1.6-135.7 7.6-204.2 27.2-109.6 31.5-202.8 82.5-269.5 147.6l-14 13.7-21-11c-69.1-36-177.7-88.4-217.4-104.9-60.3-25.1-81.8-32.4-132.6-45.2-18.4-4.7-53.9-12.7-55.9-12.7-.3 0-.6-12.3-.6-27.3 0-50.1-4.3-127-8.6-155-.5-3.5-.4-3.8 2.4-4.8 14-4.9 44.1-20.9 65.1-34.6 29.5-19.3 51.6-37.7 80.6-66.8l20-20.2 7.7 3.3c30.6 13 68.5 22.2 107.3 25.9 18.6 1.8 57.8 2 71.6.5 49.7-5.6 97.2-24 144.4-56.1 7.2-4.9 15.3-10.7 18-12.8 2.8-2.2 5.2-4 5.5-4 .3 0 5.7 4.7 12 10.5zm390 394.9c0 .3-2.3 7.5-5 16-16.3 50.6-28.4 94.2-35.1 126.4l-3.1 15.4 4.3 4.2c9.5 9.1 65.2 61 65.8 61.3.4.1 1.9-6.6 3.5-15 5-26.7 15.3-66.7 27.8-108.3 5.2-17.4 28.6-89.5 29.3-90.3.5-.5 23.5 5.8 33.5 9.3 66.2 23.2 99.7 69.5 96.7 134-1.1 22.6-5.5 41.9-14.3 61.9l-4.6 10.5-9.1 5.4c-44.5 26.4-97.6 40.7-166.2 44.8-33.8 2-72 .2-107.5-5.2-87.7-13.2-194.2-49-315.2-105.9-23.1-10.8-22.3-8.5-7.2-22.5 36-33.2 70.3-56.7 115.7-79.1 73.5-36.2 152.6-57.3 235.2-62.7 8.5-.6 55.5-.7 55.5-.2zm-999 19.9c0 2.5-10.9 40.1-15.5 53.5-31.6 91.9-76.4 151.9-125.9 168.7-9.1 3.1-21.4 5.4-29.1 5.4h-6.2l-1.2-8.8c-.6-4.9-1.1-15.4-1.1-23.5 0-58.8 22.2-108.2 65.3-145.3 29-24.9 61.7-40.8 101.2-49 13.4-2.8 12.5-2.7 12.5-1z"/>
</svg>
